# xmcd
#
# Track frame offsets:
# 150
# 35735
# 68000
# 104412
# 139450
# 176580
#
# Disc length: 2804 seconds
#
#
# Revision: 0
# Processed by: cddbd v1.5.2PL0 Copyright (c) Steve Scherf et al.
# Submitted via: FreeRIP 2.951 
#
DISCID=560af206
DTITLE=Terra Molhada - Sertanejo Bom demais
DYEAR=1900
DGENRE=Country
TTITLE0=Se Deus me ouvisse, Só mais uma vez, Obras de poeta, Filho adotivo, O menino e a rosa, O vai e vem do carreiro
TTITLE1=Telefone mais, Desencontro, Lágrimas, Majestade o sabiá, Rastros na areia, Música da saudade
TTITLE2=Amor e amizade, A noite do nosso amor, Asa delta, Esta noite como lembrança, Quarto vizinho, Pago dobrado, Crises de amor
TTITLE3=Fio de cabelo, Vestido de seda, Alto astral, Blusa vermelha, Colcha de retalhos, Telefone mudo
TTITLE4=Cheiro de relva, Luar do sertão, Homem de pedra, 24 horas de amor, As paredes azuis, Você marcou prá mim, As andorinhas
TTITLE5=O presidente e o lavrador, Ladrão de terra, Como eu chorei, Trepadeira, Apartamento 37, Ela chora, chora, Bica d'água
EXTD=
EXTT0=
EXTT1=
EXTT2=
EXTT3=
EXTT4=
EXTT5=
PLAYORDER=
